<?xml version="1.0" encoding="UTF-8" standalone="no"?>
<svg
   viewBox="0 0 140 140"
   version="1.1"
   width="140"
   height="140"
   id="svg8923"
   xmlns="http://www.w3.org/2000/svg"
   xmlns:svg="http://www.w3.org/2000/svg">
  <defs
     id="defs8927" />
  <g
     id="layer1">
    <rect
       style="fill:#ffffff;stroke-width:27.419;stroke-linejoin:round;paint-order:stroke fill markers"
       id="rect10144"
       width="140"
       height="140"
       x="0"
       y="0" />
  </g>
  <path
     id="path5873"
     d="M 32.365234 27.646484 A 34.223971 34.223971 0 0 0 1.3007812 61.724609 L 1.3007812 78.341797 A 34.28 34.28 0 0 0 35.283203 112.59375 C 35.474123 112.60075 35.65869 112.60075 35.849609 112.59375 A 34.29 34.29 0 0 0 69.775391 78.369141 L 69.783203 78.277344 L 112.05469 78.25 L 128.48828 78.25 L 138.55664 78.25 L 138.54883 61.822266 L 128.48828 61.816406 L 128.48828 45.892578 L 112.05469 45.892578 L 112.05469 55.615234 L 103.37109 55.615234 L 103.37109 43.431641 L 86.9375 43.472656 L 86.9375 61.857422 L 69.755859 61.816406 L 69.748047 61.724609 A 34.223971 34.223971 0 0 0 32.365234 27.646484 z M 33.363281 46.808594 A 15.39 15.39 0 0 1 50.910156 61.724609 L 50.910156 78.341797 A 15.35 15.35 0 0 1 46.384766 89.201172 A 15.32 15.32 0 0 1 35.539062 93.728516 A 15.45 15.45 0 0 1 20.152344 78.341797 L 20.136719 61.724609 A 15.39 15.39 0 0 1 33.363281 46.808594 z " />
</svg>
